<svg width="35" height="36" viewBox="0 0 35 36" fill="none" xmlns="http://www.w3.org/2000/svg">
<path d="M9.13911 17.9H0C0 24.1592 3.08662 29.5092 8.49869 32.6414L13.1339 24.6007C10.7874 23.271 9.19685 20.78 9.13386 17.9053L9.13911 17.9Z" fill="black"/>
<path d="M25.8715 17.9053C25.8137 20.7852 24.2127 23.2815 21.8662 24.6059L26.5014 32.6414C31.9187 29.5092 35.0001 24.1645 35.0001 17.9H25.8715V17.9053Z" fill="black"/>
<path d="M25.8767 17.2224C25.8767 17.2802 25.8715 17.3327 25.8662 17.3853H34.9948C34.9948 11.1261 31.9082 5.77614 26.4961 2.64392L22.0027 10.4377C24.3176 11.8093 25.8767 14.3319 25.8767 17.2171V17.2224Z" fill="black"/>
<path d="M17.5039 9.03928C18.9685 9.03928 20.3333 9.44394 21.5039 10.1429L25.9974 2.34916C20.5853 -0.783053 14.4173 -0.783053 9 2.34916L13.4987 10.1482C14.6745 9.4492 16.0394 9.04453 17.5039 9.04453V9.03928Z" fill="black"/>
<path d="M17.5039 26.0608C18.9685 26.0608 20.3333 25.6562 21.5039 24.9572L25.9974 32.7509C20.5853 35.8832 14.4173 35.8832 9 32.7509L13.4987 24.9519C14.6745 25.6509 16.0394 26.0556 17.5039 26.0556V26.0608Z" fill="black"/>
<path d="M9.12861 17.2224C9.12861 14.3372 10.6824 11.8198 12.9974 10.4429L8.49869 2.64392C3.08662 5.77614 0 11.1261 0 17.3853H9.13911C9.13911 17.3275 9.12861 17.2749 9.12861 17.2224Z" fill="black"/>
</svg>
