<svg width="31" height="30" viewBox="0 0 31 30" fill="none" xmlns="http://www.w3.org/2000/svg">
<path d="M25.7467 25.7606C28.3747 23.1392 30 19.524 30 15.5362C30 7.56068 23.4922 1.06909 15.4967 1.06909C7.50124 1.06909 1 7.56721 1 15.5428C1 19.5306 2.62531 23.1457 5.25333 25.7672" stroke="#3A3A3A" stroke-linecap="round" stroke-linejoin="round"/>
<path d="M8.53665 22.4916C6.75405 20.7134 5.64648 18.2554 5.64648 15.5424C5.64648 10.1229 10.0702 5.71021 15.5032 5.71021C20.9362 5.71021 25.3599 10.1229 25.3599 15.5424C25.3599 18.2554 24.2524 20.7134 22.4698 22.4916" stroke="#3A3A3A" stroke-linecap="round" stroke-linejoin="round"/>
<path d="M11.8136 19.2169C10.8699 18.2755 10.2866 16.9746 10.2866 15.5429C10.2866 12.673 12.6197 10.3457 15.4968 10.3457C18.3739 10.3457 20.707 12.673 20.707 15.5429C20.707 16.9811 20.1237 18.2755 19.18 19.2169" stroke="#3A3A3A" stroke-linecap="round" stroke-linejoin="round"/>
<path d="M6.96387 29.0685L15.5033 20.5569L24.0362 29.0685H6.96387Z" stroke="#3A3A3A" stroke-linecap="round" stroke-linejoin="round"/>
</svg>
