<svg width="36" height="36" viewBox="0 0 36 36" fill="none" xmlns="http://www.w3.org/2000/svg">
<path d="M10.1391 18.0853H1C1 24.3445 4.08662 29.6945 9.49869 32.8267L14.1339 24.786C11.7874 23.4563 10.1969 20.9653 10.1339 18.0906L10.1391 18.0853Z" fill="#3A3A3A" stroke="#EBEBEB" stroke-miterlimit="10"/>
<path d="M18.0026 25.8054C16.5958 25.8054 15.2782 25.4323 14.1338 24.7859L9.49866 32.8266C14.916 35.9589 21.084 35.9589 26.496 32.8266L21.8609 24.7911C20.7218 25.4376 19.4042 25.8054 18.0026 25.8054Z" fill="#3A3A3A" stroke="#EBEBEB" stroke-miterlimit="10"/>
<path d="M25.8714 18.0853C25.8137 20.9653 24.2126 23.4616 21.8661 24.786L26.5013 32.8215C31.9186 29.6892 35 24.3445 35 18.0801H25.8714V18.0853Z" fill="#3A3A3A" stroke="#EBEBEB" stroke-miterlimit="10"/>
<path d="M25.8766 17.9225C25.8766 17.9803 25.8714 18.0328 25.8661 18.0854H34.9948C34.9948 11.8262 31.9081 6.47621 26.4961 3.34399L22.0026 11.1377C24.3176 12.5094 25.8766 15.032 25.8766 17.9172V17.9225Z" fill="#3A3A3A" stroke="#EBEBEB" stroke-miterlimit="10"/>
<path d="M18.0026 10.0393C19.4672 10.0393 20.832 10.4439 22.0026 11.1429L26.496 3.34916C21.084 0.216946 14.916 0.216946 9.49866 3.34916L13.9973 11.1482C15.1732 10.4492 16.538 10.0445 18.0026 10.0445V10.0393Z" fill="#3A3A3A" stroke="#EBEBEB" stroke-miterlimit="10"/>
<path d="M10.1286 17.9225C10.1286 15.0372 11.6824 12.5199 13.9974 11.143L9.49869 3.34399C4.08662 6.47621 1 11.8262 1 18.0854H10.1391C10.1391 18.0276 10.1286 17.975 10.1286 17.9225Z" fill="#3A3A3A" stroke="#EBEBEB" stroke-miterlimit="10"/>
</svg>
